15_US_stride4.mot
nRows=165
nColumns=3

name 15_US_stride4.mot
datacolumns 3
datarows 165
range 2.030000 2.850000
endheader
time	soleus_l	med_gas_l
        2.0300000000	       28.8699872630	       30.9126139072	
        2.0350000000	       28.7847543863	       30.6583541015	
        2.0400000000	       28.6261288190	       30.3123668106	
        2.0450000000	       28.4047231679	       29.9453787273	
        2.0500000000	       28.1699990418	       29.6208068377	
        2.0550000000	       27.9610824742	       29.3568023669	
        2.0600000000	       27.8079032498	       29.1615879409	
        2.0650000000	       27.7500363018	       29.0619289748	
        2.0700000000	       27.7424114825	       28.9935342170	
        2.0750000000	       27.8052377997	       28.9455119287	
        2.0800000000	       27.9383728983	       28.9182507666	
        2.0850000000	       28.0947462390	       28.8761633194	
        2.0900000000	       28.2334833220	       28.7937537415	
        2.0950000000	       28.2968057244	       28.6798413939	
        2.1000000000	       28.3186577034	       28.5389819586	
        2.1050000000	       28.2676287401	       28.3014925192	
        2.1100000000	       28.1558333281	       28.0272059029	
        2.1150000000	       28.0077863041	       27.7500041043	
        2.1200000000	       27.8811114297	       27.5287255011	
        2.1250000000	       27.7987836689	       27.3829426957	
        2.1300000000	       27.7332225918	       27.2426911263	
        2.1350000000	       27.7213761001	       27.1507327967	
        2.1400000000	       27.7341163898	       27.1028689700	
        2.1450000000	       27.7712809577	       27.0743202759	
        2.1500000000	       27.7991356072	       27.0452547314	
        2.1550000000	       27.8026828634	       27.0136223766	
        2.1600000000	       27.7999962579	       26.9693026623	
        2.1650000000	       27.7733243058	       26.9037256128	
        2.1700000000	       27.7358378553	       26.8407723695	
        2.1750000000	       27.6919402652	       26.7915208467	
        2.1800000000	       27.6356812673	       26.7593628712	
        2.1850000000	       27.5758185996	       26.7407726657	
        2.1900000000	       27.5102551351	       26.7265798790	
        2.1950000000	       27.3887555656	       26.6931547094	
        2.2000000000	       27.2209776824	       26.6347539995	
        2.2050000000	       26.9954994511	       26.5481417618	
        2.2100000000	       26.6938087553	       26.4387549882	
        2.2150000000	       26.3313057665	       26.3295107240	
        2.2200000000	       26.0161227370	       26.2545845961	
        2.2250000000	       25.5884151876	       26.1751332203	
        2.2300000000	       25.0436485809	       26.0929529913	
        2.2350000000	       24.4780740889	       26.0121321761	
        2.2400000000	       23.9172854183	       25.9149152585	
        2.2450000000	       23.5209466059	       25.8234433672	
        2.2500000000	       23.1110083192	       25.7025204914	
        2.2550000000	       22.6440010813	       25.5254620066	
        2.2600000000	       22.2341863517	       25.3381193300	
        2.2650000000	       21.8350995559	       25.1426300139	
        2.2700000000	       21.4527058460	       24.9586877225	
        2.2750000000	       21.1503441300	       24.8182888879	
        2.2800000000	       20.9007713496	       24.7033105670	
        2.2850000000	       20.5944526153	       24.5508109843	
        2.2900000000	       20.3334886495	       24.3881861457	
        2.2950000000	       20.1335172342	       24.2158790543	
        2.3000000000	       19.9972039187	       24.0428643627	
        2.3050000000	       19.9289535517	       23.9048218910	
        2.3100000000	       19.9156765098	       23.8309294842	
        2.3150000000	       19.9324025808	       23.8321972594	
        2.3200000000	       20.0143807266	       23.9114249019	
        2.3250000000	       20.1603412612	       24.1422414511	
        2.3300000000	       20.3761253462	       24.4979292611	
        2.3350000000	       20.6643533150	       24.9535085743	
        2.3400000000	       20.9227714546	       25.3310016317	
        2.3450000000	       21.1984711774	       25.6936801009	
        2.3500000000	       21.6080213685	       26.1496355494	
        2.3550000000	       22.0012899581	       26.4749413170	
        2.3600000000	       22.3895262621	       26.6516425662	
        2.3650000000	       22.7784682977	       26.6664412231	
        2.3700000000	       23.1290191524	       26.5948720348	
        2.3750000000	       23.4113434527	       26.4533179074	
        2.3800000000	       23.8022946790	       26.2292092892	
        2.3850000000	       24.2508108466	       25.9585692427	
        2.3900000000	       24.7077594055	       25.6997619060	
        2.3950000000	       25.1401316561	       25.4822374233	
        2.4000000000	       25.4568927365	       25.3412257887	
        2.4050000000	       25.8061253864	       25.2107798707	
        2.4100000000	       26.1621438663	       25.1171384284	
        2.4150000000	       26.4638367287	       25.0836310043	
        2.4200000000	       26.7380535517	       25.1052698157	
        2.4250000000	       27.0212190038	       25.1717586012	
        2.4300000000	       27.2629850343	       25.2400414812	
        2.4350000000	       27.5208265561	       25.3055585704	
        2.4400000000	       27.9034452953	       25.3719627867	
        2.4450000000	       28.3132966951	       25.3950837733	
        2.4500000000	       28.7403885765	       25.3823835561	
        2.4550000000	       29.1922381836	       25.3454877208	
        2.4600000000	       29.6059049954	       25.3078314936	
        2.4650000000	       29.9287917170	       25.2854451041	
        2.4700000000	       30.3369388352	       25.2880396267	
        2.4750000000	       30.7501504048	       25.3132798262	
        2.4800000000	       31.1094593712	       25.3860707027	
        2.4850000000	       31.3960862274	       25.5047657950	
        2.4900000000	       31.5906249402	       25.6710098645	
        2.4950000000	       31.6788304402	       25.8310586688	
        2.5000000000	       31.7242613272	       26.0394311712	
        2.5050000000	       31.7411129734	       26.3389595641	
        2.5100000000	       31.7335017395	       26.6489194151	
        2.5150000000	       31.7204694966	       26.9590388421	
        2.5200000000	       31.7080721710	       27.1767267196	
        2.5250000000	       31.6918673461	       27.3675340222	
        2.5300000000	       31.6529803267	       27.5915735877	
        2.5350000000	       31.5872064893	       27.7742180400	
        2.5400000000	       31.4880662337	       27.9319836814	
        2.5450000000	       31.3472862492	       28.0747737149	
        2.5500000000	       31.1898201073	       28.1863542649	
        2.5550000000	       31.0490705708	       28.2617033757	
        2.5600000000	       30.8507225474	       28.3426367301	
        2.5650000000	       30.6342631707	       28.4095560717	
        2.5700000000	       30.4372468772	       28.4600416754	
        2.5750000000	       30.2657832716	       28.5022000124	
        2.5800000000	       30.1159702842	       28.5415125347	
        2.5850000000	       30.0083547096	       28.5694430499	
        2.5900000000	       29.8834973636	       28.5773474144	
        2.5950000000	       29.7019479510	       28.5748562011	
        2.6000000000	       29.4631411655	       28.5169828517	
        2.6050000000	       29.1851458949	       28.4125006173	
        2.6100000000	       28.8804112618	       28.2657721045	
        2.6150000000	       28.6333594542	       28.1245481604	
        2.6200000000	       28.4485402945	       28.0007054745	
        2.6250000000	       28.2720823626	       27.8555972092	
        2.6300000000	       28.2369925737	       27.7337880224	
        2.6350000000	       28.2834697284	       27.6635327027	
        2.6400000000	       28.4556068053	       27.6471280766	
        2.6450000000	       28.6469438164	       27.6779162892	
        2.6500000000	       28.9350697231	       27.7723361152	
        2.6550000000	       29.2653035655	       27.9557557041	
        2.6600000000	       29.5689735973	       28.2034249761	
        2.6650000000	       29.8263139321	       28.4828721886	
        2.6700000000	       30.0288017567	       28.7474913762	
        2.6750000000	       30.1489601226	       28.9111397989	
        2.6800000000	       30.2577524247	       29.0390393626	
        2.6850000000	       30.3682984220	       29.1309849865	
        2.6900000000	       30.4596484882	       29.1673313447	
        2.6950000000	       30.5387865581	       29.1930131829	
        2.7000000000	       30.6135848512	       29.2600551371	
        2.7050000000	       30.6752930880	       29.3761135251	
        2.7100000000	       30.7304244634	       29.5451323984	
        2.7150000000	       30.8121691994	       29.8662169504	
        2.7200000000	       30.9001420003	       30.2803416586	
        2.7250000000	       30.9839614323	       30.7534056089	
        2.7300000000	       31.0471650425	       31.2574733041	
        2.7350000000	       31.0749552431	       31.7334137847	
        2.7400000000	       31.0645185654	       32.0725010299	
        2.7450000000	       31.0274555301	       32.4589591611	
        2.7500000000	       30.9414980395	       32.8668151943	
        2.7550000000	       30.8357576787	       33.2217817271	
        2.7600000000	       30.7227618023	       33.5408606392	
        2.7650000000	       30.6150883967	       33.8141263466	
        2.7700000000	       30.5331373863	       33.9989559599	
        2.7750000000	       30.4530362473	       34.1565688269	
        2.7800000000	       30.3406780586	       34.3376847688	
        2.7850000000	       30.2192172335	       34.4916762846	
        2.7900000000	       30.0926435977	       34.6189001376	
        2.7950000000	       29.9982941317	       34.6820646154	
        2.8000000000	       29.9355726548	       34.7069192425	
        2.8050000000	       29.8927554369	       34.6559812607	
        2.8100000000	       29.9043020555	       34.5081885734	
        2.8150000000	       29.9509255275	       34.2466464619	
        2.8200000000	       30.0117448844	       33.8824130172	
        2.8250000000	       30.0423882748	       33.4697237926	
        2.8300000000	       30.0199469064	       33.1502099451	
        2.8350000000	       29.9450439757	       32.7731310403	
        2.8400000000	       29.7654298057	       32.3770341869	
        2.8450000000	       29.5228946697	       32.0571192659	
        2.8500000000	       29.2624042501	       31.8149984742	
